<?xml version="1.0" encoding="UTF-8" standalone="no"?>
<!-- Created with Inkscape (http://www.inkscape.org/) -->

<svg
   width="22.104221"
   height="30.475101"
   viewBox="0 0 5.8484084 8.0632042"
   version="1.1"
   id="svg5"
   inkscape:version="1.1.2 (1:1.1+202202050950+0a00cf5339)"
   sodipodi:docname="hand_backup.svg"
   xmlns:inkscape="http://www.inkscape.org/namespaces/inkscape"
   xmlns:sodipodi="http://sodipodi.sourceforge.net/DTD/sodipodi-0.dtd"
   xmlns="http://www.w3.org/2000/svg"
   xmlns:svg="http://www.w3.org/2000/svg">
  <sodipodi:namedview
     id="namedview7"
     pagecolor="#ffffff"
     bordercolor="#666666"
     borderopacity="1.0"
     inkscape:pageshadow="2"
     inkscape:pageopacity="0.0"
     inkscape:pagecheckerboard="0"
     inkscape:document-units="px"
     showgrid="false"
     inkscape:zoom="0.44364478"
     inkscape:cx="-233.29475"
     inkscape:cy="153.27578"
     inkscape:window-width="1366"
     inkscape:window-height="740"
     inkscape:window-x="0"
     inkscape:window-y="0"
     inkscape:window-maximized="1"
     inkscape:current-layer="layer1"
     showborder="false"
     units="px"
     fit-margin-top="0"
     fit-margin-left="0"
     fit-margin-right="0"
     fit-margin-bottom="0" />
  <defs
     id="defs2" />
  <g
     inkscape:label="Layer 1"
     inkscape:groupmode="layer"
     id="layer1"
     transform="translate(-94.627588,-108.03065)">
    <path
       id="path33035"
       style="font-variation-settings:normal;display:inline;fill:none;fill-opacity:1;stroke:#000000;stroke-width:0.105833;stroke-linecap:butt;stroke-linejoin:miter;stroke-miterlimit:4;stroke-dasharray:none;stroke-dashoffset:0;stroke-opacity:1;stop-color:#000000"
       d="m 98.544282,109.23505 c 0,0 -0.44778,-0.42026 -0.94575,-0.48813 m -2.04051,0.52046 1.20789,-0.31696 m -1.78956,3.55662 c 0,0 0.0549,-0.38141 -0.008,-0.66904 m 0.24165,1.571 c 0,0 0.31456,-0.63603 0.35357,-1.01276 0.039,-0.37672 -0.1062,-0.84625 -0.1062,-0.84625 m 1.78411,2.79095 c 0,0 0.10766,-0.37707 0.0486,-0.64001 -0.0591,-0.26293 -0.28152,-0.24488 -0.51275,-0.9194 m -0.45725,1.83867 c 0,0 0.27179,0.48819 0.45552,0.59427 0.17605,0.10164 0.36868,0.1101 0.53139,0.0284 0.16271,-0.0816 0.23961,-0.59849 0.11516,-0.75476 -0.0881,-0.1106 -0.86437,-0.5631 -0.99498,-1.05867 m -1.65476,-1.23804 c 0.0214,0.0885 0.20394,0.31559 0.20394,0.31559 0,0 -0.0568,0.3512 -0.0141,0.50772 0.0427,0.15653 0.24775,0.39424 0.24775,0.39424 0,0 -0.18727,0.76445 0.11498,1.59199 0.25079,0.99957 0.11244,0.96269 0.2125,1.02046 0.10006,0.0578 0.59818,-0.009 0.75264,-0.27677 0.23598,-0.40936 -0.13998,-1.15903 0.1092,-2.26003 0.32312,-0.66344 0.56968,-1.12851 1.09789,-1.39558 0.25497,-0.12891 0.59749,-0.0412 0.74121,0.0592 0.15142,0.10578 0.36841,0.84773 0.88167,1.06295 0.13647,0.0572 0.56376,0.14315 0.85479,0.0149 0.218948,-0.14702 0.505958,-0.40999 0.437488,-0.6096 -0.20144,-0.40069 -0.918538,-0.94498 -0.975228,-1.04316 -0.0567,-0.0982 0.004,-0.9202 -0.27993,-1.60512 -0.19578,-0.47188 -0.61293,-0.73313 -0.61293,-0.73313 0,0 -0.023,-0.61609 -0.0394,-0.67715 -0.0164,-0.0611 -0.70719,-0.48958 -1.55657,-0.47392 -0.88739,0.0164 -1.24451,0.19987 -1.26385,0.27204 -0.0193,0.0722 -0.13069,0.74239 -0.12644,0.91136 0,0 -0.48653,0.30099 -0.68285,0.79329 -0.19632,0.49229 -0.26812,1.15837 -0.10276,2.13078 z"
       sodipodi:nodetypes="cccccccscccccssscccsccsscsssccsccssccsc"
       inkscape:label="hand__default--all" />
  </g>
</svg>
