<svg width="296.942" height="969.506" viewBox="0 0 78.566 256.515" xmlns:xlink="http://www.w3.org/1999/xlink" xmlns="http://www.w3.org/2000/svg">
  <defs>
    <linearGradient id="e">
      <stop offset="0" stop-color="#ffcea3"/>
      <stop offset="1" stop-color="#ff8f38" stop-opacity="0"/>
    </linearGradient>
    <linearGradient id="d">
      <stop offset="0" stop-color="#fa6"/>
      <stop offset="1" stop-color="#fa6" stop-opacity="0"/>
    </linearGradient>
    <linearGradient id="c">
      <stop offset="0" stop-color="#ffbe88"/>
      <stop offset="1" stop-color="#ffa964"/>
    </linearGradient>
    <linearGradient id="b">
      <stop offset="0" stop-color="#ffcea3"/>
      <stop offset="1" stop-color="#ffa964"/>
    </linearGradient>
    <linearGradient id="a">
      <stop offset="0" stop-color="#ffa45c"/>
      <stop offset="1" stop-color="#ffbe88"/>
    </linearGradient>
    <linearGradient xlink:href="#a" id="g" x1="194.283" y1="-206.793" x2="245.293" y2="-206.793" gradientUnits="userSpaceOnUse"/>
    <linearGradient xlink:href="#b" id="i" x1="110.029" y1="-73.706" x2="118.933" y2="-71.669" gradientUnits="userSpaceOnUse" gradientTransform="translate(-1.058)"/>
    <linearGradient xlink:href="#c" id="h" x1="94.564" y1="-39.489" x2="105.056" y2="-28.785" gradientUnits="userSpaceOnUse" gradientTransform="translate(-.595 -.397)"/>
    <linearGradient xlink:href="#d" id="f" x1="84.716" y1="-17.896" x2="87.539" y2="-12.743" gradientUnits="userSpaceOnUse"/>
    <linearGradient xlink:href="#e" id="j" x1="82.856" y1="-59.448" x2="72.316" y2="-55.921" gradientUnits="userSpaceOnUse"/>
  </defs>
  <path style="font-variation-settings:normal;-inkscape-stroke:none" d="M110.055 61.911c.011 0 .709-3.774-.341-8.46-1.05-4.686-1.33-5.198-1.522-7.084-.192-1.887-.367-5.685.975-8.418-.181-.578-2.595-8.596-2.89-12.394-.288-1.038-3.162-5.991-3.162-5.991L96.478 34.49l1.555 17.4c-1.038.07-32.53-1.894-32.53-1.894-.586-9.44-1.993-18.82-4.005-26.592-3.141 6.057-4.585 9.316-4.478 11.338 1.214 1.03 2.057 2.913 3.228 6.518 1.171 3.604 4.788 8.736 4.788 8.736.473 2.84-3.821 5.773-3.821 5.773-.024.065-11.427-8.94-17.014-18.266.07-10.642 12.591-25.061 14.688-30.981 0 0 1.88-3.215 4.573-3.936 2.692-.722 13.729-6.26 13.729-6.26s-.02-6.903-.38-9.335C78.754-14.183 90.9-23.974 93.948-21.9l-.61 18.228 16.626 4.855s2.365 1.067 3.244 2.473c.878 1.406 3.904 14.795 4.44 18.874.534 4.08 1.233 16.172 1.233 16.172.069 0 1.273 10.598-1.238 23.956-.921.506-6.99.024-7.588-.746z" fill="#ffbe88" transform="translate(-44.201 100.874)"/>
  <path style="font-variation-settings:normal;-inkscape-stroke:none" d="M67.454 26.31c-2.634.41-1.83 20.351-1.95 23.687-.699-8.68-1.415-17.672-4.006-26.592 2.134 1.964 5.613 2.406 5.956 2.905zm33.786-9.226L96.479 34.49l6.637-14.927c.399-.596-1.116-2.61-1.874-2.48z" fill="#ffad6b" transform="translate(-44.201 100.874)"/>
  <path style="font-variation-settings:normal;-inkscape-stroke:none" d="m101.24 17.084 1.088-3.437c1.795-.515 3.88 6.52 5.821 9.78.171 7.827 1.391 9.673 2.194 13.898-1.076 10.354.705 17.088 1.45 25.09l-1.738-.504s.945-3.781-.84-10.631c-1.786-6.85-1.36-11.003-.048-13.33-.473-1.812-3.037-10.772-2.89-12.395-1.3-2.693-5.036-8.471-5.036-8.471z" fill="#ffb375" transform="translate(-44.201 100.874)"/>
  <path style="font-variation-settings:normal;-inkscape-stroke:none" d="M62.607 13.399c-5.23 6.375-4.472 12.093-10.176 17.07l4.59-.59c.07-1.855.736-3.55 1.478-5.236.842-1.91 1.81-3.786 2.67-5.466.19-.878 1.114 1.078 4.276 1.875-2.648-2.453-4.378-3.539-2.838-7.653z" transform="translate(-44.201 105.738)" fill="#ffb375"/>
  <path style="font-variation-settings:normal;-inkscape-stroke:none" d="M50.246 30.357c5.814.841 10.589 9.717 14.79 14.776-2.09-2.47-5.348-9.863-5.54-10.929 0 0-1.561-3.978-2.476-4.325-.14-.473-5.94-.32-6.774.478" transform="translate(-44.201 105.738)" fill="#ffb375"/>
  <path style="font-variation-settings:normal;-inkscape-stroke:none" d="M63.735 16.19c-3.793 7.017-1.39 11.41 14.079 9.618 4.728.247 12.818 4.194 17.443-7.356l3.065-1.518s-3.19 7.265-8.735 9.614c-5.546 2.35-11.798-.32-11.798-.32-1.906.344-9.784.565-12.344-.312-1.177-.403-3.235-1.626-3.648-3.504-.412-1.878.941-4.698 1.938-6.222z" fill="#ffb375" transform="translate(-44.201 100.874)"/>
  <path style="font-variation-settings:normal;-inkscape-stroke:none" d="m94.539 51.734 1.94-17.243 1.554 17.4zM99.892-1.76c3.018.65 5.632 5.793 7.47 6.025 5.45-2.784 12.39 28.152 11.85 43.06-.085-8.655-1-17.328-1.748-25.997-1.054-5.877-2.354-11.763-4.256-17.673-.763-1.221-2.08-1.75-3.244-2.473z" fill="#ffcb9e" transform="translate(-44.201 100.874)"/>
  <path d="M120.398 64.967c.419.685.847 3.687.847 5.021 0 1.687-1.397 6.736-1.743 8.238-.461.756-.906 1.665-2.944 1.308-.597.503-1.593 1.119-2.944.848-.624-.493-.793-.533-.793-.533l-.68.28s-1.815.13-2.517-.452c-.014-1.313.11-1.213.11-1.213s-.454.635-.978.888c-.46.221-1.767.535-2.386-.09-.36-.577-.524-.836-.524-.836-.077-.064-.204-1.3.004-3.127-1.221-.344-1.82-1.708-1.823-1.713-.35-.708-.464-6.95.816-9.314s2.662-2.607 3.785-2.473c1.124.134 3.87.202 6.365.474 2.494.27 2.65.384 2.65.384 1.367 1.112 2.336 1.624 2.755 2.31zM61.274 55.63c-.003.055-.48 2.306 1.007 3.847 1.487 1.54 2.361 2.228 3.592 2.046 1.231-.182.512-10.1.512-10.1l-1.349-1.426s-4.008 4.689-3.762 5.633z" style="font-variation-settings:normal;-inkscape-stroke:none" fill="#ffbe88" transform="translate(-44.201 100.874)"/>
  <path style="font-variation-settings:normal;-inkscape-stroke:none" d="M105.85 75.3s.93-3.838.744-6.705c-.257-.745-.99-1.718-1.054-2.572-.23 1.524-.566 2.841-.481 3.669.085.827.8 1.364.746 2.123-.054.759-.617 1.381-1.778 1.77 0 0 .199.447.573.873.107.21 1.15.995 1.25.841z" fill="#ffad6b" transform="translate(-44.201 100.874)"/>
  <path style="font-variation-settings:normal;-inkscape-stroke:none" d="M105.846 75.342s5.366-.317 4.736 1.003c-.63 1.32 2.119-.978 2.873-.178s.494 1.206.494 1.206 2.308-1.36 2.872-.51c.564.85 1.085.469 1.916 1.138-1.72-.304-1.851.37-2.321.03-.47-.34-3.157-.509-3.157-.509s-1.06-.364-.754-.8c-1.119.187-2.301.8-2.87-.031-.568-.832-.87-1.349-2.878-1.349z" fill="#ffcb9e" transform="translate(-44.201 100.874)"/>
  <path style="font-variation-settings:normal;-inkscape-stroke:none" d="M65.504 49.997s.373 17.916 1.071 19.914c6.495 18.58 15.02 50.174 16.238 59.724 2.9.565 5.064-.447 5.064-.587-1.413-9.34 1.073-26.818-3.874-31.818-1.009-1.147-1.225-2.752-1.431-3.44l-1.684-22.598 1.409.014s19.301 40.054 18.883 56.942c4.992.352 6.814 0 6.814 0S106.308 106.222 100.49 96c-.157-.583-.73-41.432-2.458-44.11-2.192 0-32.53-1.894-32.53-1.894z" fill="#ffbe88" transform="translate(-44.201 100.874)"/>
  <path style="font-variation-settings:normal;-inkscape-stroke:none" d="m67.89 73.844 13.256.817-.278-3.198s.898-.01 1.474.426c.575.436 1.314 2.499 1.359 2.485l16.108-1.433s.932-15.521-1.753-21.05c-1.548-.177-32.552-1.894-32.552-1.894s-.058 7.515.238 13.33c.168 3.305.397 6.032.608 6.584.516 1.492 1.54 3.933 1.54 3.933z" fill="#001b47" transform="translate(-44.201 100.874)"/>
  <path style="font-variation-settings:normal" d="m78.532 70.934.12.79.427 2.808 2.126.13-.243-3.199" fill="#000b1f" transform="translate(-44.201 100.874)"/>
  <path style="font-variation-settings:normal;-inkscape-stroke:none" d="M85.265 130.875c1.642-.369 1.947-3.981 2.273-5.157-.515-7.793.342-15.7-1.185-23.408-.394-2.155-1.4-4.132-2.839-5.764-1.304-2.369-1.008-5.133-1.313-7.728l-1.085-14.157-2.06-.129c-1.647 21.393 8.253 27 6.209 56.343z" fill="#ffad6b" transform="translate(-44.201 100.874)"/>
  <path style="font-variation-settings:normal;-inkscape-stroke:none" d="M100.086 82.032c-.208-6.552-1.942-7.582-1.502-9.056.698-2.497 2.267-11.896-.551-21.084-1.171-.104-2.331-.164-3.485-.237 1.806 4.63 1.579 17.804 1.943 21.57.087 7.058 2.438 15.176 4 22.776" fill="#fff" fill-opacity=".235" transform="translate(-44.201 100.874)"/>
  <path style="font-variation-settings:normal;-inkscape-stroke:none" d="M77.168-10.68c1.386 3.362 10.338-1.687 16.485-7.25l.18-5.374-16.815 7.84z" fill="url(#f)" transform="translate(-44.201 105.738)"/>
  <path style="font-variation-settings:normal" d="M52.945-71.607c-.742.48-1.148 2.833.323 3.242.307 1.209.946 5.578 1.184 8.27.238 2.69-3.048 7.867-3.048 10.066 0 2.2 2.13 6.15 2.855 8.286.726 2.136 2.548 8.786 2.156 13.976-.933 1.835-1.284 2.729-1.284 2.729l-.167 1.21c.056 1.204.616 4.074 3.825 6.383 4.438 2.03 7.554 4.57 18.022 4.437 5.568-1.898 26.002-13.28 31.618-19.22.585-5.249 5.036-16.493 2.182-23.054l5.477-4.896c.685-8.188 6.546-10.758-.87-28.66-7.415-17.903-45.822-17.789-48.426-16.286-2.603 1.503-6.692 5.56-8.034 9.48-1.294 10.235-2.512 16.742-5.813 24.037z" fill="#ffbe88" transform="translate(-44.201 105.738)"/>
  <path style="font-variation-settings:normal" d="M218.99-50.097c-16.148-28.703.811-37.22 3.505-34.508 1.973-4.11-5.242-7.415-1.63-30.842-26.536-49.548-15.695-81.284 7.832-73.07 27.402-18.242 27.5-23.859 27.5-23.859s-10.137-28.4-10.92-33.683c-55.122-10.85-17.539-35.01-14.695-102.125l4.052-15.31c-5.387 6.185-10.146 13.346-12.558 20.389-4.89 38.686-9.492 63.277-21.97 90.851-2.804 1.81-4.34 10.708 1.22 12.25 1.163 4.57 3.578 21.085 4.479 31.256.9 10.171-11.522 29.736-11.522 38.047 0 8.31 8.047 23.244 10.791 31.316 2.744 8.072 9.632 33.21 8.149 52.822-3.526 6.937-4.854 10.315-4.854 10.315l-.63 4.574c.083 1.496.569 4.96 1.892 8.487 2.524 6.73 8.92 13.314 9.359 13.09z" transform="translate(-44.201 100.874) scale(.26458)" fill="url(#g)"/>
  <path style="font-variation-settings:normal;-inkscape-stroke:none" d="M61.625-32.909s1.456 2.883 2.334 3.788c.879.905 3.057 2.205 9.571 2.098 6.514-.106 9.492-4.31 10.711-6.077-11.385 4.087-22.616.191-22.616.191z" fill="#ffa466" transform="translate(-44.201 105.738)"/>
  <path style="font-variation-settings:normal;-inkscape-stroke:none" d="M59.783-35.503s1.93 2.844 2.637 3.57c.706.726 2.54 1.846 4.53 2.236 1.99.39 9.92 2.504 17.291-3.403.86-1.136 3.584-5.407 3.584-5.407l-8.164 5.4s-2.688.07-6.107-.42c0 0-13.62-2.16-13.77-1.976z" fill="#ffad75" transform="translate(-44.201 105.738)"/>
  <path style="font-variation-settings:normal;-inkscape-stroke:none" d="M59.521-35.613c.312-.404 17.288 2.273 19.88 1.903.353 0 1.2-.35 1.432-.504 2.538-1.606 6.775-4.39 7.233-4.522-.082.404-4.88 4.034-6.754 5.277-.723.423-1.505.615-1.73.67-.305.073-8.904.115-20.06-2.824z" fill="#cc5100" transform="translate(-44.201 105.738)"/>
  <path style="font-variation-settings:normal;-inkscape-stroke:none" d="M86.74-39.908c-.066.114-.039.352.856 1.048.128.129.343.522.343.522.23.421.418 1.663.552 1.742.082.141.302-.092.384-.28.163-.378.334-.95-.041-1.775-.168-.356-.336-.719-.672-.933-.273-.174-1.253-.587-1.422-.324z" fill="#803300" transform="translate(-44.201 105.738)"/>
  <path style="font-variation-settings:normal;-inkscape-stroke:none" d="M70.916-13.27c3.002-1.213 7.377-3.493 6.017-8.146 9.32-4.463 11.818-7.778 15.582-14.893 5.468-5.922 16.195.5 18.252-9.668.28-.116-1.631 11.503-2.338 13.75-.414.466-2.44 2.23-4.282 3.636-.996.89-6.747 4.57-6.747 4.57.183-.336-14.842 10.202-20.59 11.013-3.747.53-5.23-.357-5.894-.262z" fill="url(#h)" transform="translate(-44.201 105.738)"/>
  <path style="font-variation-settings:normal;-inkscape-stroke:none" d="M114.16-88.838c.724 15.397-4.849 34.573-5.141 34.336 0 0 5.206-3.121 6.045-2.935.016-.877-.137 1.702.418-5.541.206-.78 2.278-6.206 2.393-10.887.016-1.718-.4-5.068-1.268-8.08-.982-3.41-2.433-6.428-2.447-6.893z" fill="url(#i)" transform="translate(-44.201 105.738)"/>
  <path style="font-variation-settings:normal;-inkscape-stroke:none" d="M116.352-60.555s4.297-.855 5.831 2.487c1.534 3.342-.218 5.995-2.203 9.434-1.986 3.439-4.504 6.466-4.504 6.466s-2.18 1.735-3.864 1.369c-1.684-.367-2.927-1.622-2.927-3.837s.034-4.414.42-6.852c.386-2.438 2.622-7.67 7.247-9.067z" fill="#ffbe88" transform="translate(-44.201 105.738)"/>
  <path style="font-variation-settings:normal;-inkscape-stroke:none" d="M111.362-45.58s-1.914-4.623 5.047-10.066c.936-.504 1.755-.487 2.485-.095.724.388 1.328 1.283 1.285 2.104-.108 2.073-1.395 3.953-2.51 5.706-.71 1.117-1.509 2.26-2.614 2.988-.684.45-1.543.948-2.337.751-.628-.155-1.012-.568-1.356-1.388z" fill="#ffad6b" transform="translate(-44.201 105.738)"/>
  <path style="font-variation-settings:normal;-inkscape-stroke:none" d="M56.73-58.597s.294 2.484 1.976 3.14c1.681.658 4.028 1.182 5.432.938 1.552-.744 1.571-.702 1.571-.702l.812-1.588c-1.887-1.03-4.175-1.932-9.791-1.788z" fill="#fa6" transform="translate(-44.201 105.738)"/>
  <path style="font-variation-settings:normal;-inkscape-stroke:none" d="m67.79-59.89-2.184-3.508c2.275.323.85-.89 1.141-2.55 0 0 1.007.604 1.82 1.88.811 1.277-.247 4.121-.777 4.178" fill="#ffb070" transform="translate(-44.201 105.738)"/>
  <path style="font-variation-settings:normal;-inkscape-stroke:none" d="m57.975-61.7-.999 3.338s1.77 1.348 4.229 1.551c2.463.203 5.244.109 5.244.109.365-.539.773-1.27 1.148-2.227 0 0-.065-2.906-1.27-3.41-1.207-.503-5.474-1.737-7.837-.626-.174.1-.515 1.266-.515 1.266z" fill="#fff" transform="translate(-44.201 105.738)"/>
  <g transform="translate(-63.76 100.65) scale(.93597)" stroke-width="1.068" fill-rule="evenodd">
    <path d="M92.237-61.476c-.357-.139-4.17-1.924-6.221-.74a4.714 4.714 0 0 0 .418 6.3c.463.472 2.255.604 3.398.518a5.208 5.208 0 0 0 2.272-.707c.928-.884 1.146-1.15 1.147-2.442a4.726 4.726 0 0 0-1.014-2.93z" fill="#3f3027"/>
    <path d="M85.02-58.46c.107.843.447 1.656.976 2.323.912.036 1.607-.988 1.28-1.822a1.366 1.366 0 0 0-2.257-.502z" fill="#fff"/>
    <circle cx="89.522" cy="-59.02" r="2.491"/>
    <circle cx="88.54" cy="-58.412" r=".715" fill="#fff"/>
  </g>
  <path style="font-variation-settings:normal" d="M61.605-64.621c-1.162.01-2.363.145-3.417.662-.619.48-.825 1.293-1.052 2.005-.296 1.046-.454 2.123-.649 3.19.229.148.577.516.594.054.385-1.251.728-2.516 1.148-3.755.073-.38.347-.624.725-.682 1.558-.463 3.22-.255 4.787.054.915.202 1.834.432 2.695.809.658.43.85 1.266 1.007 1.986.086.452.17.91.187 1.369.318-1.409.256-1.78-.102-3.481-.54-.97-1.532-1.324-2.515-1.661a11.364 11.364 0 0 0-3.408-.55z" stroke="#000" stroke-width=".026" transform="translate(-44.201 105.738)"/>
  <path style="font-variation-settings:normal;-inkscape-stroke:none" d="M76.103-66.176c-5.369 4.872-4.801 10.666-3.326 11.39 1.476.723 2.756-.398 9.677-.353 0 0 2.093-7.611 4.816-7.596 2.724.016 8.871 5.734 8.871 5.734 1.19-2.06-.69-5.477-1.757-8.175-1.41-.698-3.086-.556-5.854-.421-2.768.135-4.378.436-6.607 1-3.797 8.331-3.257-1.238-5.82-1.58z" fill="url(#j)" transform="translate(-44.201 105.738)"/>
  <path style="font-variation-settings:normal;-inkscape-stroke:none" d="M96.486-56.317c-.244 2.44-4.338 3.045-5.938 3.109-1.6.063-2.061.077-5.833-.37-3.772-.448-5.84-3.248-5.84-3.248 3.767-.55 8.725-.642 17.611.509z" fill="#fa6" transform="translate(-44.201 105.738)"/>
  <path style="font-variation-settings:normal" d="M79.58-58.09s-.88.384-1.338.35c-.42-.032-.804.59-.153.783.65.194 1.47.412 1.87.017.15-.147.567-.337.646-.436.134-.166-.534-.85-.534-.85l-.491.136z" transform="translate(-44.201 105.738)"/>
  <path style="font-variation-settings:normal" d="M79.56-57.863s-.741.284-1.08.258c-.312-.023-.47.41-.23.558.667.413 2.372.012 2.358-.107l-.537-1.073-.512.364z" fill="#fff" transform="translate(-44.201 105.738)"/>
  <path style="font-variation-settings:normal;-inkscape-stroke:none" d="M79.96-56.94s.938-2.45 1.581-3.372c.59-.845 1.795-1.844 3.276-1.88 1.69-.041 5.074-.28 8.403.45 2.333.51 2.902 5.549 2.902 5.549s-2.737.955-7.003.955c-3.76 0-5.979-.469-9.16-1.702z" fill="#fff" transform="translate(-44.201 105.738)"/>
  <g fill-rule="evenodd" transform="translate(-44.201 105.738)">
    <path d="M93.19-62.218c-.356-.139-6.785-.227-7.174.002a4.714 4.714 0 0 0 .418 6.3c.463.472 2.252.515 3.398.518.95.002 2.102.008 2.82-.414.928-.884 1.552-2.185 1.553-3.477a4.726 4.726 0 0 0-1.014-2.93z" fill="#3f3027"/>
    <path d="M85.02-58.673c.107.844.447 1.657.976 2.324.912.036 1.607-.988 1.28-1.822a1.366 1.366 0 0 0-2.257-.502z" fill="#fff"/>
    <circle cx="89.522" cy="-59.515" r="2.491"/>
    <circle cx="88.54" cy="-58.836" r=".715" fill="#fff"/>
  </g>
  <path style="font-variation-settings:normal;-inkscape-stroke:none" d="M86.827-63.413c-1.567.015-3.173.106-4.652.66-.673.263-1.136.864-1.33 1.546a179.356 179.356 0 0 1-1.265 3.118c.256.294.667.893.761.203.565-1.286 1.084-2.71 2.3-3.53.793-.614 1.804-.827 2.789-.795 2.672-.099 5.39-.106 8.003.529 1.188.478 1.72 1.78 2.113 2.906.267.821.453 1.669.569 2.525.493-.024.894-.116.627-.68-.258-1.403-.461-2.838-.988-4.17-.404-.748-1.037-1.43-1.893-1.63-1.72-.56-3.544-.55-5.33-.652a40.695 40.695 0 0 0-1.704-.03z" transform="translate(-44.201 105.738)"/>
  <path style="font-variation-settings:normal;-inkscape-stroke:none" d="M73.808-69.827c0 .435.8 2.79 1.886 3.442.598.36 1.385.598 2.892.405 1.506-.193 6.396-.737 8.246-.83 1.85-.092 7.338.28 11.393 2.258l.74.127s-.826-2.234-4.551-4.697c-2.466-1.63-7.735-1.453-9.34-1.447-1.605.005-5.074.078-5.074.078s-2.996.181-3.69.181c.082.205.087.285.087.285s-.888-.022-1.115-.115c.046.354.046.448.046.448s-.506-.132-.824-.377l.042.38z" fill="#803300" transform="translate(-44.201 105.738)"/>
  <path style="font-variation-settings:normal;-inkscape-stroke:none" d="M74.9-67.195s-.513-.77-.745-1.43c.453.386.509.864 1.454 1.175-.76-.632-.93-1.008-1.042-1.588.598.873 2.044.69 2.311 1.524-.152-.465-.363-.901-.251-1.466 1.632.714 2.357.993 4.336.924-2.034 1.285-6.064.86-6.064.86z" fill="#421b00" transform="translate(-44.201 105.738)"/>
  <path style="font-variation-settings:normal;-inkscape-stroke:none" d="M74.9-67.195c-.036.418 11.517-3.834 24.064 2.77-.179-.006-.473-.013-.786-.149-1.22-.53-4.13-1.634-7.831-2.065-2.435-.146-5.593-.08-8.7.306-1.94.36-3.757.706-5.32.24-.815-.299-1.076-.564-1.428-1.102z" fill="#421b00" transform="translate(-44.201 105.738)"/>
  <path style="font-variation-settings:normal;-inkscape-stroke:none" d="m52.945-71.607.78-.22s4.296-.812 9.064.012c2.01.59 2.737 1.222 3.647 4.904-.813-.18-4.021-1.64-7.46-1.56-3.439.08-5.708.106-5.708.106-.035.026-.663-.208-.85-.768-.216-.645-.189-1.116.036-1.77.167-.483.486-.697.49-.704z" fill="#803300" transform="translate(-44.201 105.738)"/>
  <path style="font-variation-settings:normal;-inkscape-stroke:none" d="M52.91-71.608c-.012.049-.264.369-.044 1.852.112.754 3.507.3 6.86.421 3.242.118 6.445.796 6.597 2.4-.551-.203-4.39-1.481-6.1-1.517-1.712-.035-7.075.096-7.075.096a1.375 1.375 0 0 1-.525-.26c-.264-.188-.404-.611-.405-.617 0-.006-.08-.364-.086-.808.087-.75.172-1.143.662-1.57z" fill="#421b00" transform="translate(-44.201 105.738)"/>
  <path style="font-variation-settings:normal;-inkscape-stroke:none" d="M65.235-70.227s.393 1.372.204 1.74c.03-.477-1.524-1.674-2.515-1.898.066.862.59 1.429.06 1.353.048-.592-1.69-1.165-2.533-1.635.22.604-1 1.237-2.386 1.536 1.744.028 7.44 1.96 8.371 2.22.025.018-.646-2.527-1.2-3.316z" fill="#421b00" transform="translate(-44.201 105.738)"/>
  <path style="font-variation-settings:normal;-inkscape-stroke:none" d="M68.543-41.35c.314-.283.722-.504 1.157-.455.6.01 1.28.12 1.675.62.172.195.188.532.517.502.752.1 1.52.033 2.262-.118a1.95 1.95 0 0 0 1.088-.616c.23-.235-.129.097-.24.136-.452.232-.971.279-1.47.334-.536.037-1.09.073-1.613-.08-.128-.21-.24-.482-.46-.64-.489-.39-1.15-.431-1.75-.415-.47.06-.86.393-1.166.732zm-8.564-5.585c-.537.464-.837 1.163-.958 1.85-.077.434-.01 1.013.466 1.185.283.048.497.055.4.384-.013.381-.061.766.056 1.138.156.77.488 1.529 1.104 2.042.991.91 2.403 1.117 3.7 1.127 1.237-.015 2.436-.669 3.242-1.542-.936.879-2.238 1.385-3.526 1.245-1.209-.068-2.498-.388-3.342-1.314-.62-.62-.878-1.509-.979-2.357l.038-.927c-.462.035-.912-.334-.896-.812-.035-.726.269-1.445.695-2.02z" fill="#ff8629" transform="translate(-44.201 105.738)"/>
  <path style="font-variation-settings:normal;-inkscape-stroke:none" d="m61.966-47.744-.823.12s-.74.165-1.125.639-.814 1.362-.727 2.142c.086.78.89.738.89.738l-.04.976s.156 1.362.792 2.102c.637.74 1.544 1.454 3.844 1.536 2.3.083 3.683-1.76 3.683-1.76s.639-.836 1.348-.836c.71 0 1.736.07 2.081 1.05.617.246 2.45.087 3.036-.203.546-.27 1.094-.972 1.267-1.512.174-.54-.19-1.612-.997-2.402-.807-.79-1.51-.81-2.225-.678 1.064.243 2.05 1.178 2.136 1.855.087.677.12 1.169-.48 1.968-.6.8-1.357.35-2.05.179-.693-.171-1.37-.779-2.224-.875-.855-.096-2.61.254-3.467.779-.857.525-3.938 1.652-4.861.646-.923-1.007-1.604-1.28-1.51-3.19 1.376-3.158 1.452-3.274 1.452-3.274z" fill="#ffad6b" transform="translate(-44.201 105.738)"/>
  <path style="font-variation-settings:normal;-inkscape-stroke:none" d="M70.63-59.014c-.767 3.9-3.912 14.35-3.912 14.35s.09.738-2.105 1.354c-2.195.617-3.185-1.323-3.329-1.827.568-4.245 5.847-13.34 6.7-14.823.576.002 2.263.153 2.645.946z" fill="#ffcea3" transform="translate(-44.201 105.738)"/>
  <g fill="#b2cfff">
    <g stroke-width=".018">
      <path style="font-variation-settings:normal;mix-blend-mode:normal" d="M-140.203 30.807c.122.52-.027.878-.188 1.256-.162.378-.324.327-.73.418-.408.091-1.872.053-1.872.053s-1.213 1.446-2.535 1.446c-.372 0-1.063.19-1.063.19s-.48-.055-.931-.198a1.844 1.844 0 0 1-.312-.37c-.045-.07-.035-.18-.124-.28a.255.255 0 0 1-.067-.22c.11-.309.237-.214.476-.525a1.932 1.932 0 0 1 1.05-.523c.2-.193.786-.269 1.12-.378.542-.613 1.58-1.89 2.454-2.374.876-.483.309-1.608.309-1.608l2.001-.042s.35 2.895.412 3.155c.061.26 0 0 0 0z" fill="#001b48" paint-order="stroke fill markers" transform="matrix(4.38603 -.15788 .1582 4.39485 656.57 75.61)"/>
      <path style="font-variation-settings:normal;mix-blend-mode:normal" d="M-147.522 33.972a.47.47 0 0 1 .026-.264.889.889 0 0 1 .074-.143c-.056-.044-.098-.105-.143-.16a1.563 1.563 0 0 1-.251-.441c-.019-.034-.013-.101-.03-.118a.416.416 0 0 0-.178.256.254.254 0 0 0 .066.22c.044.045.078.15.104.237.027.073.069.115.115.179.058.09.128.162.217.234z" fill="#002766" transform="matrix(4.38603 -.15788 .1582 4.39485 656.57 75.61)"/>
      <path style="font-variation-settings:normal" d="m-142.457 28.677.02-.261 1.916.002.032.256zm-.006-.507-.067-.261 1.948.01.031.256z" fill="#8fbaff" transform="matrix(4.38603 -.15788 .1582 4.39485 656.57 75.61)"/>
      <path style="font-variation-settings:normal;mix-blend-mode:normal" d="M-147.422 33.565c-.037-.016-.42-.452-.424-.72-.003.008.194-.126.248-.21.087-.106.215-.21.334-.292.212-.125.326-.175.536-.237 0 0 .6.123.544.563-.056.44-1.057.626-1.238.896" fill="#002766" transform="matrix(4.38603 -.15788 .1582 4.39485 656.57 75.61)"/>
      <path style="font-variation-settings:normal" d="M-142.993 32.534c-.792.586-1.29 1.31-3.194 1.437-.128.008-.266.022-.404.023v.177c.09.005.351-.082.507-.12a4.82 4.82 0 0 1 .408-.064c.08-.006.353-.008.463-.034.08-.011.288-.057.47-.129a3.39 3.39 0 0 0 .546-.27 4.67 4.67 0 0 0 .52-.367c.16-.124.508-.438.684-.653" fill="#002766" transform="matrix(4.38603 -.15788 .1582 4.39485 656.57 75.61)"/>
      <path d="M-147.422 33.565s-.15.21-.1.407c.18.084.85.202.931.199.365-.111.81-.174.915-.184-.086-.04-.935-.163-1.326-.348-.102-.048-.378.135-.42-.074z" style="font-variation-settings:normal" fill="#002766" transform="matrix(4.38603 -.15788 .1582 4.39485 656.57 75.61)"/>
    </g>
    <g style="mix-blend-mode:normal" stroke-width=".023" paint-order="stroke fill markers">
      <path style="font-variation-settings:normal" d="M-131.116 28.762c.196.883-.144 2.071.158 3.14.18.598.184 1.257.49 1.812.59.746.326 1.167.284 1.421-.065.558-.115.628-.372.82-.257.193-.504.582-1.104.728-.915.33-1.875.393-2.747.43-.553-.303-.592-.954-.521-1.225.071-.271.21-.369.404-.523-.118-.325.148-.812.308-1.088-.027-1.275.768-2.593.498-3.982-.705-1.507-.228-1.942-.184-2.458.044-.517-.137-1.93-.137-1.93l2.561-.266c.064 1.16.317 2.548.362 3.121z" fill="#001b48" transform="matrix(3.44895 -.17857 .18099 3.40276 512.13 106.228)"/>
      <path style="font-variation-settings:normal" d="M-133.92 33.336c1.027-.14.728-1.526 1.588-1.385.823.136.667.412 1.395 1.499-1.312-.419-2.983-.114-2.983-.114z" fill="#002766" transform="matrix(3.44895 -.17857 .18099 3.40276 512.13 106.228)"/>
      <path style="font-variation-settings:normal" d="m-133.904 27.332-.024-.36 2.547-.266.044.36zm-.053-.69-.038-.36 2.544-.266.033.36z" fill="#8fbaff" transform="matrix(3.44895 -.17857 .18099 3.40276 512.13 106.228)"/>
      <path style="font-variation-settings:normal" d="M-131.532 36.249c-.661-.098-.82.08-1.882.002-.179-.002-.338-.567-1.514-.363.076-.19.066-.29.404-.523 0 0-.368.26-.404.523-.04.087-.033.333.002.505.085.303.137.517.52.72.5.024 2.057-.132 2.746-.43.538-.125.769-.406 1.206-.808a.451.451 0 0 0 .142-.165c.105-.22.15-.462.128-.575-.185.662-.686 1.213-1.348 1.114z" fill="#002766" transform="matrix(3.44895 -.17857 .18099 3.40276 512.13 106.228)"/>
      <path style="font-variation-settings:normal" d="M-133.482 36.645s-.124-.518.165-.764" fill="none" stroke="#002766" stroke-width=".077" stroke-linecap="round" transform="matrix(3.44895 -.17857 .18099 3.40276 512.13 106.228)"/>
    </g>
  </g>
</svg>
